<svg xmlns="http://www.w3.org/2000/svg" viewBox="0 0 100 100">
<defs><radialGradient id="bg" cx="50%" cy="32%" r="75%"><stop offset="0" stop-color="#9b7a44"/><stop offset="1" stop-color="#33230f"/></radialGradient>
<radialGradient id="sk" cx="45%" cy="40%" r="60%"><stop offset="0" stop-color="#d9a07a"/><stop offset="1" stop-color="#d9a07a" stop-opacity=".82"/></radialGradient></defs>
<rect width="100" height="100" fill="url(#bg)"/>
<path d="M16 100 C18 74 32 64 50 64 C68 64 82 74 84 100 Z" fill="#5b4630"/>
<rect x="43" y="54" width="14" height="14" rx="4" fill="#d9a07a" opacity=".9"/>
<ellipse cx="50" cy="45" rx="15.5" ry="18.5" fill="url(#sk)"/>
<circle cx="44" cy="45" r="1.5" fill="#2a1a12"/><circle cx="56" cy="45" r="1.5" fill="#2a1a12"/>
<path d="M32 48 C30 80 70 80 68 48 C64 62 36 62 32 48 Z" fill="#7a4a22"/>
            <path d="M44 72 L48 92 L52 92 L56 72 Z" fill="#6a3f1c"/>
            <path d="M30 38 C30 18 70 18 70 38 Z" fill="#8c8f94"/><rect x="28" y="36" width="44" height="5" rx="2" fill="#6d7075"/>
            <path d="M14 100 C16 78 30 70 50 70 C70 70 84 78 86 100 Z" fill="#5b4630"/>
</svg>