<svg xmlns="http://www.w3.org/2000/svg" viewBox="0 0 100 100">
<defs><radialGradient id="bg" cx="50%" cy="32%" r="75%"><stop offset="0" stop-color="#b0564a"/><stop offset="1" stop-color="#3b1411"/></radialGradient>
<radialGradient id="sk" cx="45%" cy="40%" r="60%"><stop offset="0" stop-color="#eab896"/><stop offset="1" stop-color="#eab896" stop-opacity=".82"/></radialGradient></defs>
<rect width="100" height="100" fill="url(#bg)"/>
<path d="M16 100 C18 74 32 64 50 64 C68 64 82 74 84 100 Z" fill="#5a3a26"/>
<rect x="43" y="54" width="14" height="14" rx="4" fill="#eab896" opacity=".9"/>
<ellipse cx="50" cy="45" rx="15.5" ry="18.5" fill="url(#sk)"/>
<circle cx="44" cy="45" r="1.5" fill="#2a1a12"/><circle cx="56" cy="45" r="1.5" fill="#2a1a12"/>
<path d="M32 42 C30 22 70 20 68 40 C66 32 58 28 48 30 C40 30 34 34 32 42 Z" fill="#c4502a"/>
            <path d="M58 40 L63 52" stroke="#9b4a3a" stroke-width="1.6"/>
            <path d="M18 100 C20 76 32 66 50 66 C68 66 80 76 82 100 Z" fill="#5a3a26"/>
            <path d="M24 80 L76 74 L78 80 L26 86 Z" fill="#8a6a42"/>
</svg>